<svg width="160" height="40" viewBox="0 0 160 40" fill="none" xmlns="http://www.w3.org/2000/svg">
<g clip-path="url(#clip0)">
<circle cx="108" cy="12" r="47" fill="#4BC0E4"/>
<circle cx="49.5" cy="40.5" r="39.5" fill="#FED6B9"/>
<path d="M42.4876 23.476C42.4876 24.428 42.3756 25.324 42.1516 26.164C41.9463 27.004 41.573 27.7413 41.0316 28.376C40.509 28.992 39.7903 29.4867 38.8756 29.86C37.9796 30.2147 36.841 30.392 35.4596 30.392C34.1903 30.392 33.0983 30.2427 32.1836 29.944C31.269 29.6267 30.513 29.2627 29.9156 28.852L31.3716 25.464C31.913 25.7813 32.4916 26.0613 33.1076 26.304C33.7236 26.5467 34.3956 26.668 35.1236 26.668C36.1876 26.668 36.953 26.4067 37.4196 25.884C37.8863 25.3613 38.1196 24.484 38.1196 23.252V10.596H42.4876V23.476ZM70.6359 30C69.3853 27.7787 68.0319 25.5853 66.5759 23.42C65.1199 21.2547 63.5706 19.2107 61.9279 17.288V30H57.6159V10.596H61.1719C61.7879 11.212 62.4693 11.968 63.2159 12.864C63.9626 13.76 64.7186 14.7213 65.4839 15.748C66.2679 16.756 67.0426 17.8107 67.8079 18.912C68.5733 19.9947 69.2919 21.04 69.9639 22.048V10.596H74.3039V30H70.6359ZM100.312 23.476C100.312 24.428 100.2 25.324 99.976 26.164C99.7707 27.004 99.3973 27.7413 98.856 28.376C98.3333 28.992 97.6147 29.4867 96.7 29.86C95.804 30.2147 94.6653 30.392 93.284 30.392C92.0147 30.392 90.9227 30.2427 90.008 29.944C89.0933 29.6267 88.3373 29.2627 87.74 28.852L89.196 25.464C89.7373 25.7813 90.316 26.0613 90.932 26.304C91.548 26.5467 92.22 26.668 92.948 26.668C94.012 26.668 94.7773 26.4067 95.244 25.884C95.7107 25.3613 95.944 24.484 95.944 23.252V10.596H100.312V23.476ZM128.46 30C127.21 27.7787 125.856 25.5853 124.4 23.42C122.944 21.2547 121.395 19.2107 119.752 17.288V30H115.44V10.596H118.996C119.612 11.212 120.294 11.968 121.04 12.864C121.787 13.76 122.543 14.7213 123.308 15.748C124.092 16.756 124.867 17.8107 125.632 18.912C126.398 19.9947 127.116 21.04 127.788 22.048V10.596H132.128V30H128.46Z" fill="white"/>
</g>
<defs>
<clipPath id="clip0">
<rect width="160" height="40" fill="white"/>
</clipPath>
</defs>
</svg>
